<svg width="40" height="40" viewBox="0 0 40 40" fill="none" xmlns="http://www.w3.org/2000/svg">
<rect width="40" height="40" rx="20" fill="#5D1815"/>
<g clip-path="url(#clip0)">
<path d="M33.3797 13.6622L29.335 12.5784V26.553C29.335 27.7269 28.5378 28.7175 27.4566 29.0135L27.5621 29.4075C27.9272 30.7695 27.1201 32.1671 25.7582 32.532L22.7827 33.3293L27.7532 34.6611C28.2068 34.7827 28.6731 34.5134 28.7947 34.0598L33.9811 14.7037C34.1026 14.2501 33.8334 13.7838 33.3797 13.6622Z" fill="#FFF0C8"/>
<path d="M26.8828 29.791L26.6836 29.0475H13.1737C11.767 29.0475 10.6225 27.9031 10.6225 26.4964V12.5217L6.57779 13.6055C6.12413 13.7271 5.8549 14.1934 5.97645 14.647L11.1628 34.0031C11.2844 34.4568 11.7507 34.726 12.2043 34.6045L26.2815 30.8325C26.7351 30.7109 27.0044 30.2446 26.8828 29.791V29.791Z" fill="#FFF0C8"/>
<path d="M12.8899 27.4034H27.4636C27.9333 27.4034 28.314 27.0226 28.314 26.553V6.51408C28.314 6.04444 27.9333 5.6637 27.4636 5.6637H12.8899C12.4203 5.6637 12.0396 6.04444 12.0396 6.51408V26.553C12.0396 27.0226 12.4203 27.4034 12.8899 27.4034Z" fill="#FFF0C8"/>
<path d="M26.9289 26.4966H13.4247C13.1019 26.4966 12.8367 26.2316 12.8367 25.9005V7.14012C12.8367 6.80896 13.1019 6.54399 13.4247 6.54399H26.9289C27.2517 6.54399 27.5169 6.80896 27.5169 7.14012V25.9005C27.5169 26.2316 27.2517 26.4966 26.9289 26.4966Z" stroke="#5D1815" stroke-width="0.4"/>
<g filter="url(#filter0_di)">
<mask id="path-6-outside-1" maskUnits="userSpaceOnUse" x="13.0542" y="11.0133" width="14" height="11" fill="black">
<rect fill="white" x="13.0542" y="11.0133" width="14" height="11"/>
<path d="M26.2342 14.8946C26.2445 14.9219 26.2245 14.9481 26.1964 14.9556C26.195 14.956 26.1936 14.9564 26.1922 14.9568C26.1424 14.9699 26.1061 14.9207 26.1144 14.8699C26.1234 14.8145 26.1247 14.7553 26.1184 14.6923C26.1184 14.5573 26.0768 14.3964 25.9937 14.2095C25.9854 14.1872 25.9766 14.1654 25.9673 14.144C25.8506 13.8733 25.6609 13.6329 25.4327 13.4463V13.4463C25.3496 13.3943 25.2769 13.3528 25.2145 13.3216C25.1522 13.2801 25.0639 13.2438 24.9496 13.2126C24.8353 13.1815 24.7002 13.1451 24.5444 13.1036C24.4093 13.0724 24.2431 13.0465 24.0457 13.0257C23.8587 12.9946 23.6457 12.9738 23.4067 12.9634H23.0639C22.7938 12.9634 22.534 12.9634 22.2847 12.9634C22.1896 12.9634 22.0961 12.9642 22.0043 12.9659C21.766 12.9701 21.5834 13.1456 21.5834 13.3839V13.3839C21.5834 13.602 21.5834 13.9083 21.5834 14.3029L21.599 15.4243V15.4243C21.599 15.6259 21.7552 15.7931 21.9562 15.8089C22.0337 15.8151 22.1172 15.8218 22.2067 15.8293C22.4665 15.8501 22.721 15.8708 22.9704 15.8916C23.2301 15.9124 23.4639 15.9383 23.6717 15.9695C23.8795 15.9902 24.0145 16.011 24.0769 16.0318C24.3782 16.146 24.6223 16.2966 24.8093 16.4835C24.8886 16.5627 24.9589 16.658 25.0203 16.7694C25.1099 16.9321 25.1104 17.1244 25.0898 17.309V17.309V17.309C25.0798 17.3997 24.9536 17.4428 24.8881 17.3792C24.7271 17.2226 24.5502 17.1109 24.3574 17.0442C24.2743 17.013 24.1028 16.9871 23.8431 16.9663C23.5937 16.9352 23.3184 16.9092 23.0171 16.8884C22.7262 16.8677 22.4457 16.8521 22.1756 16.8417C21.9545 16.8247 21.789 16.8147 21.6793 16.8116C21.6435 16.8106 21.6167 16.8424 21.6043 16.876V16.876C21.6009 16.8854 21.599 16.8937 21.599 16.9037V16.9077C21.599 16.9498 21.6309 16.9849 21.6728 16.9891C21.8686 17.0085 22.0725 17.0321 22.2847 17.0598C22.5236 17.0909 22.7002 17.1221 22.8145 17.1532C23.1238 17.233 23.4235 17.3798 23.7136 17.5936C23.7303 17.6059 23.7258 17.6321 23.7099 17.6453V17.6453C23.7042 17.65 23.703 17.656 23.6999 17.6627C23.6955 17.6721 23.686 17.684 23.6717 17.6984C23.6558 17.7142 23.643 17.727 23.6332 17.7368C23.6279 17.7421 23.6256 17.7482 23.6232 17.7553V17.7553C23.6189 17.7685 23.6011 17.7703 23.5896 17.7626C23.5208 17.717 23.4391 17.68 23.3444 17.6516V17.6516C23.232 17.6292 23.1162 17.6205 23.0015 17.6205V17.6205C22.9704 17.6205 22.908 17.6153 22.8145 17.6049C22.721 17.5945 22.6171 17.5841 22.5028 17.5738C22.3989 17.5634 22.3002 17.5582 22.2067 17.5582C22.1984 17.5573 22.1903 17.5564 22.1825 17.5555C22.0744 17.5439 21.9658 17.551 21.8582 17.5672C21.8033 17.5755 21.7565 17.5824 21.7178 17.5879C21.7113 17.5889 21.7036 17.5893 21.697 17.5895V17.5895C21.6368 17.5908 21.599 17.6455 21.599 17.7057V19.8634C21.599 19.9368 21.5625 19.9989 21.5259 20.0499C21.4491 20.1566 21.5462 20.2398 21.6745 20.2683V20.2683C21.9031 20.2995 21.4771 20.3057 21.7264 20.2642C21.9031 20.2227 22.0485 20.1811 22.1628 20.1396C22.2771 20.0981 22.3446 20.367 22.3966 20.3358C22.4588 20.2944 20.8606 21.2104 22.1389 20.2084C22.1441 20.2043 22.1494 20.1994 22.1536 20.1944L22.3064 20.0147C22.3595 19.9524 22.4577 20.0174 22.4211 20.0905V20.0905C22.4067 20.1193 22.414 20.1542 22.4387 20.1747L22.4487 20.1831C22.474 20.2041 22.485 20.2378 22.477 20.2697L22.4433 20.4044V20.4044C22.4207 20.4647 22.4653 20.529 22.5297 20.529H22.6666C22.7423 20.529 22.786 20.6149 22.7415 20.676V20.676C22.73 20.6918 22.7139 20.7036 22.6953 20.7096L22.1335 20.8924C22.1062 20.9013 22.1048 20.9394 22.1313 20.9503V20.9503C22.164 20.9638 22.1521 21.0127 22.1169 21.0096L21.2669 20.9347C21.2639 20.9344 21.2626 20.9306 21.2649 20.9286V20.9286C21.2673 20.9264 21.2658 20.9225 21.2626 20.9225C20.9948 20.9226 20.6965 20.9278 20.3678 20.9381C20.0457 20.9485 19.6873 20.964 19.2925 20.9848H19.012L18.4749 21.0054C18.3257 21.0112 18.2016 20.8918 18.2016 20.7425V20.7425C18.2016 20.6348 18.2685 20.535 18.3761 20.5332C18.3802 20.5331 18.3844 20.5331 18.3886 20.5331C18.4717 20.5227 18.5808 20.5071 18.7159 20.4864C18.9548 20.4656 19.1522 20.4397 19.3081 20.4085V20.4085C19.5576 20.342 19.7349 20.1323 19.7431 19.8742C19.744 19.8457 19.7444 19.8161 19.7444 19.7855V18.7321C19.7444 18.572 19.576 18.4679 19.4327 18.5394V18.5394C19.3392 18.581 19.2405 18.6277 19.1366 18.6796C18.8353 18.8146 18.5392 18.9029 18.2483 18.9444C18.0925 18.9756 17.9211 18.9807 17.734 18.96C17.547 18.9392 17.3756 18.9029 17.2198 18.8509C17.0535 18.7886 16.9081 18.7004 16.7834 18.5862C16.6678 18.4973 16.5713 18.3856 16.4937 18.2512C16.4674 18.2055 16.4509 18.155 16.4405 18.1033V18.1033C16.4302 18.0306 16.4302 17.9476 16.4405 17.8541C16.4489 17.787 16.4777 17.7233 16.5267 17.663C16.5494 17.6351 16.5863 17.6242 16.6217 17.6304L16.727 17.649C16.7704 17.6567 16.788 17.7094 16.7568 17.7405V17.7405C16.7542 17.7431 16.7512 17.7466 16.7492 17.7496C16.729 17.7797 16.704 17.8146 16.6743 17.8541V17.8541C16.5936 17.9953 16.6118 18.1787 16.7036 18.3129C16.7306 18.3524 16.7624 18.3864 16.799 18.4148C16.9237 18.4979 17.0431 18.5706 17.1574 18.6329C17.187 18.6498 17.2166 18.6652 17.2461 18.679C17.4644 18.7815 17.7111 18.8198 17.9522 18.8198V18.8198C17.9686 18.8198 17.9835 18.8194 17.997 18.8187C18.0506 18.8159 18.1081 18.8076 18.1605 18.7957V18.7957C18.1793 18.7915 18.1956 18.7872 18.2146 18.7841C18.5354 18.7319 18.822 18.6504 19.0743 18.5394C19.1886 18.4875 19.2977 18.4356 19.4016 18.3837V18.3837C19.606 18.2722 19.7421 18.0618 19.7384 17.829L19.7296 17.2623C19.7292 17.2363 19.708 17.2155 19.6821 17.2155V17.2155C19.5055 17.2363 19.3288 17.2571 19.1522 17.2778C18.9756 17.2882 18.799 17.3038 18.6224 17.3246C18.2068 17.3661 17.7652 17.3661 17.2977 17.3246C16.8509 17.2934 16.4094 17.2051 15.973 17.0598C15.7652 16.9767 15.5678 16.8884 15.3808 16.795C15.1938 16.6911 15.0172 16.5665 14.8509 16.4212C14.509 16.1416 14.2549 15.7794 14.0887 15.3345C14.0878 15.3321 14.0874 15.329 14.087 15.3265V15.3265C14.0849 15.3148 14.0717 15.3057 14.0717 15.2939C14.0717 15.2906 14.0717 15.2874 14.0717 15.2842V15.2842C14.0717 15.2427 14.0682 15.2013 14.0637 15.1601C14.043 14.972 14.0561 14.7798 14.1029 14.5833C14.1652 14.3756 14.2587 14.1835 14.3834 14.007C14.5185 13.8304 14.6743 13.6799 14.8509 13.5553C15.0483 13.4411 15.2457 13.3632 15.4432 13.3216C15.5055 13.3113 15.5678 13.3061 15.6302 13.3061C15.6925 13.3061 15.7496 13.3061 15.8016 13.3061V13.3061C16.03 13.3346 16.2471 13.2207 16.4126 13.0608C16.5093 12.9675 16.6173 12.8883 16.7366 12.8232C16.9756 12.709 17.225 12.6311 17.4847 12.5896C17.6094 12.5792 17.7496 12.5792 17.9055 12.5896C18.0821 12.6104 18.2275 12.6467 18.3418 12.6986C18.4769 12.7609 18.5964 12.844 18.7003 12.9478C18.8042 13.0621 18.8613 13.197 18.8717 13.3528C18.9133 13.602 18.8925 13.7941 18.8094 13.9291C18.7262 14.0641 18.6172 14.1783 18.4821 14.2718C18.4198 14.3133 18.3574 14.3548 18.2951 14.3964C18.2327 14.4275 18.1704 14.4587 18.1081 14.4898C17.9984 14.5496 17.927 14.638 17.8939 14.7551C17.8911 14.7651 17.8899 14.7754 17.8899 14.7857V14.7857C17.8899 14.8169 17.9107 14.8532 17.9522 14.8948V14.8948C18.0312 14.9737 17.9792 15.0978 17.8707 15.0716C17.8052 15.0558 17.7389 15.0332 17.6717 15.0038C17.5055 14.9311 17.4068 14.8065 17.3756 14.63C17.3548 14.4431 17.4016 14.2925 17.5159 14.1783C17.6198 14.0537 17.7444 13.9447 17.8899 13.8512C17.9626 13.7993 18.0301 13.7526 18.0925 13.711C18.1548 13.6695 18.2172 13.628 18.2795 13.5864C18.4042 13.4826 18.4509 13.3684 18.4198 13.2438C18.399 13.1503 18.3626 13.0828 18.3107 13.0413C18.2587 12.9998 18.1808 12.9582 18.0769 12.9167C18.05 12.9059 18.0245 12.898 18.0004 12.8928C17.9586 12.8838 17.9157 12.8803 17.8743 12.87V12.87C17.8329 12.8596 17.7904 12.8541 17.7477 12.855C17.666 12.8566 17.6043 12.8616 17.5626 12.87C17.2994 12.9104 17.0625 13.01 16.8519 13.1688C16.6643 13.3102 16.7231 13.5833 16.8613 13.7733V13.7733C16.9548 13.8979 17.0172 14.0329 17.0483 14.1783C17.0691 14.3237 17.0535 14.469 17.0016 14.6144C16.9808 14.6975 16.9548 14.7754 16.9237 14.848V14.848C16.8879 14.9553 16.9143 15.0826 17.0164 15.1309C17.229 15.2316 17.463 15.3138 17.7185 15.3776C17.8639 15.4191 18.0146 15.4555 18.1704 15.4866C18.3262 15.5074 18.4821 15.5282 18.6379 15.5489C18.7938 15.5697 18.9496 15.5905 19.1055 15.6112C19.2552 15.6212 19.4098 15.6264 19.5691 15.6268C19.582 15.6268 19.5898 15.6276 19.6023 15.6308V15.6308C19.6673 15.6472 19.7278 15.5873 19.7264 15.5202L19.6821 13.2593V13.1033C19.6821 13.0847 19.6707 13.0679 19.6534 13.061L19.4927 12.9967C19.4717 12.9883 19.4791 12.9569 19.5016 12.9588V12.9588C19.5202 12.9603 19.5304 12.9377 19.5169 12.9248L19.2475 12.6684C19.2363 12.6577 19.2292 12.6435 19.2275 12.6281V12.6281C19.2218 12.5772 19.2742 12.5398 19.3206 12.5616L19.4158 12.6064C19.4454 12.6203 19.4795 12.5987 19.4795 12.566V12.566C19.4795 12.561 19.4787 12.556 19.477 12.5513L19.3647 12.2269C19.3514 12.1885 19.3758 12.1474 19.4159 12.1407V12.1407C19.4269 12.1389 19.4375 12.1341 19.4462 12.1271V12.1271C19.4973 12.0863 19.5733 12.1276 19.5647 12.1924L19.5574 12.2469C19.5574 12.2573 19.5626 12.2729 19.573 12.2937C19.5783 12.3044 19.5837 12.3164 19.589 12.3299C19.5998 12.357 19.6112 12.3785 19.6318 12.3991V12.3991C19.6619 12.4293 19.7051 12.4522 19.7476 12.4563C19.7836 12.4597 19.8144 12.4622 19.84 12.4636C19.8697 12.4652 19.8993 12.4617 19.9289 12.4582C19.9796 12.4524 20.048 12.4494 20.134 12.4494C20.2171 12.4494 20.3574 12.4494 20.5548 12.4494C20.7626 12.4494 21.0327 12.439 21.3652 12.4183C21.7392 12.3975 22.0197 12.3871 22.2067 12.3871C22.3938 12.3767 22.5912 12.3715 22.7989 12.3715H23.4379C23.7392 12.3819 24.0509 12.3975 24.373 12.4183C24.5285 12.428 24.6692 12.4445 24.7951 12.4678C25.049 12.5149 25.2894 12.6396 25.4327 12.8544V12.8544C25.5262 12.9686 25.6093 13.0932 25.682 13.2282C25.7548 13.3528 25.8119 13.467 25.8535 13.5709C25.9054 13.6747 25.9366 13.737 25.947 13.7578C25.9781 13.8408 26.0041 13.9291 26.0249 14.0225C26.0561 14.116 26.082 14.2043 26.1028 14.2873C26.1236 14.3808 26.1444 14.469 26.1652 14.5521C26.1838 14.6265 26.2024 14.701 26.221 14.7754C26.2253 14.7926 26.2275 14.8103 26.2275 14.828C26.2275 14.8388 26.2275 14.8505 26.2275 14.8632C26.2275 14.8737 26.2305 14.8847 26.2342 14.8946V14.8946ZM19.6653 12.5285C19.6416 12.5082 19.6141 12.5297 19.632 12.5554C19.6349 12.5596 19.6379 12.5638 19.641 12.5681C19.6543 12.5864 19.6821 12.5766 19.6821 12.554V12.554C19.6821 12.5469 19.679 12.5402 19.6736 12.5356L19.6653 12.5285ZM16.3003 14.007C16.2899 14.142 16.2899 14.2562 16.3003 14.3496C16.3107 14.4535 16.3522 14.5573 16.425 14.6611C16.4542 14.7099 16.4835 14.754 16.5127 14.7936C16.5165 14.7988 16.5212 14.804 16.5257 14.8086V14.8086C16.5835 14.8672 16.6808 14.8743 16.7297 14.808C16.7672 14.7573 16.7976 14.7052 16.8211 14.6516C16.8274 14.6373 16.8344 14.6233 16.8418 14.6096C16.895 14.5112 16.9119 14.4038 16.8925 14.2873C16.8821 14.1731 16.825 14.0485 16.7211 13.9135C16.7078 13.8969 16.6939 13.881 16.6793 13.8658C16.5414 13.7216 16.3156 13.8081 16.3003 14.007V14.007ZM19.0587 17.1844C19.173 17.174 19.2821 17.1636 19.386 17.1532C19.4563 17.1468 19.5267 17.1385 19.597 17.1281C19.6736 17.1169 19.7288 17.0503 19.7288 16.9729V16.9729C19.7288 16.8966 19.6749 16.8291 19.5987 16.8266C19.5901 16.8263 19.5815 16.8261 19.573 16.8261C19.5314 16.8261 19.4847 16.8209 19.4327 16.8106C19.2873 16.8002 19.1366 16.7898 18.9808 16.7794C18.8353 16.7586 18.6847 16.7327 18.5288 16.7015C18.373 16.6808 18.2172 16.6548 18.0613 16.6237C17.9159 16.5821 17.7704 16.5354 17.625 16.4835C17.4795 16.4316 17.334 16.3744 17.1886 16.3121C17.0535 16.2395 16.9237 16.1616 16.799 16.0785C16.6639 15.9954 16.5392 15.902 16.425 15.7982V15.7982C16.2206 15.594 15.9574 15.4563 15.6913 15.344C15.639 15.3219 15.5874 15.2968 15.5367 15.2686C15.3393 15.1544 15.225 14.9882 15.1938 14.7702C15.1834 14.6144 15.2146 14.469 15.2873 14.3341C15.3366 14.2496 15.3931 14.1675 15.4567 14.0878C15.5046 14.0278 15.5952 14.0317 15.642 14.0925V14.0925C15.6798 14.1416 15.6746 14.2105 15.6348 14.2579C15.6222 14.2729 15.6102 14.2879 15.599 14.3029C15.5678 14.3444 15.5367 14.3912 15.5055 14.4431C15.4535 14.5365 15.438 14.6404 15.4587 14.7546C15.4691 14.8792 15.5315 14.9882 15.6457 15.0817C15.7322 15.1681 15.8295 15.2186 15.9376 15.2331C15.968 15.2371 15.988 15.2052 15.9743 15.1778V15.1778C15.9735 15.176 15.9727 15.1742 15.9721 15.1724C15.9617 15.1418 15.9464 15.1064 15.9263 15.0661V15.0661C15.8834 14.9662 15.8658 14.857 15.8545 14.7489C15.8377 14.589 15.8409 14.4092 15.8639 14.2095C15.8835 14.0594 15.9154 13.9155 15.9596 13.7777C16.0018 13.6462 15.9397 13.493 15.8016 13.493V13.493C15.7496 13.493 15.7029 13.493 15.6613 13.493C15.6198 13.493 15.573 13.4982 15.5211 13.5086C15.3341 13.5397 15.1574 13.6124 14.9912 13.7266C14.8458 13.8304 14.7159 13.9706 14.6016 14.1471C14.5081 14.2821 14.4354 14.4639 14.3834 14.6923C14.3419 14.8688 14.3367 15.0557 14.3678 15.253C14.399 15.5334 14.5029 15.7878 14.6795 16.0162C14.8354 16.2239 15.0328 16.4108 15.2717 16.5769C15.386 16.6496 15.5055 16.7171 15.6302 16.7794C15.7548 16.8313 15.8899 16.8832 16.0354 16.9352C16.2951 17.039 16.56 17.1065 16.8302 17.1376C16.747 17.1169 16.6691 17.1013 16.5964 17.0909C16.5237 17.0702 16.4509 17.0442 16.3782 17.013C16.2951 16.9819 16.2224 16.9455 16.16 16.904C16.0977 16.8625 16.0354 16.8158 15.973 16.7638C15.8587 16.6808 15.7496 16.5665 15.6457 16.4212C15.5522 16.2758 15.5003 16.1252 15.4899 15.9695C15.4899 15.9383 15.4899 15.9228 15.4899 15.9228C15.4899 15.9228 15.4899 15.9228 15.4899 15.9228V15.9228C15.4899 15.8991 15.4995 15.8666 15.5217 15.8583L15.5759 15.838C15.5908 15.8324 15.6073 15.8319 15.6222 15.8376C15.6385 15.8438 15.6559 15.8513 15.6746 15.8599C15.6969 15.8702 15.717 15.8849 15.7344 15.9023V15.9023C15.7774 15.9453 15.8055 16.0045 15.7919 16.0638C15.7887 16.0779 15.7847 16.0913 15.7799 16.1038C15.7743 16.1184 15.7679 16.1328 15.763 16.1476V16.1476C15.7377 16.2234 15.7371 16.3083 15.7833 16.3735C15.8291 16.4383 15.8924 16.5009 15.973 16.5614C16.025 16.6029 16.0769 16.6392 16.1289 16.6704C16.1513 16.6838 16.1737 16.6982 16.1961 16.7136C16.2255 16.7338 16.2704 16.7058 16.2694 16.6701V16.6701C16.2691 16.6602 16.2734 16.6511 16.279 16.643C16.2865 16.6323 16.292 16.6197 16.2956 16.6051C16.3023 16.5772 16.3093 16.5488 16.3259 16.5255L16.3277 16.523C16.3589 16.4794 16.4115 16.4552 16.4639 16.4664C16.6057 16.4966 16.733 16.5594 16.8457 16.6548V16.6548C17.085 16.8427 17.2529 17.1697 17.5539 17.2143C17.6999 17.2359 17.8534 17.2467 18.0146 17.2467C18.1912 17.2467 18.3626 17.2415 18.5288 17.2311C18.7055 17.2207 18.8821 17.2051 19.0587 17.1844ZM21.599 17.4551C21.599 17.469 21.6102 17.4803 21.6242 17.4803V17.4803C21.6281 17.4803 21.6319 17.4793 21.6355 17.4778C21.6562 17.4691 21.6855 17.4647 21.7236 17.4647V17.4647C21.8176 17.4647 21.9113 17.4499 22.0047 17.461C22.0145 17.4622 22.0247 17.4634 22.0353 17.4647C22.1288 17.4751 22.2275 17.4855 22.3314 17.4959C22.4457 17.4959 22.5444 17.5011 22.6275 17.5115C22.721 17.5115 22.7834 17.5115 22.8145 17.5115V17.5115C22.9285 17.5115 23.0434 17.527 23.1574 17.527V17.527V17.527C23.1864 17.527 23.2052 17.4658 23.1783 17.4548C23.0179 17.3892 22.8291 17.3354 22.6119 17.2934C22.2899 17.2311 22.0145 17.1896 21.786 17.1688H21.7547C21.6687 17.1688 21.599 17.2385 21.599 17.3246V17.4551Z"/>
</mask>
<path d="M26.2342 14.8946C26.2445 14.9219 26.2245 14.9481 26.1964 14.9556C26.195 14.956 26.1936 14.9564 26.1922 14.9568C26.1424 14.9699 26.1061 14.9207 26.1144 14.8699C26.1234 14.8145 26.1247 14.7553 26.1184 14.6923C26.1184 14.5573 26.0768 14.3964 25.9937 14.2095C25.9854 14.1872 25.9766 14.1654 25.9673 14.144C25.8506 13.8733 25.6609 13.6329 25.4327 13.4463V13.4463C25.3496 13.3943 25.2769 13.3528 25.2145 13.3216C25.1522 13.2801 25.0639 13.2438 24.9496 13.2126C24.8353 13.1815 24.7002 13.1451 24.5444 13.1036C24.4093 13.0724 24.2431 13.0465 24.0457 13.0257C23.8587 12.9946 23.6457 12.9738 23.4067 12.9634H23.0639C22.7938 12.9634 22.534 12.9634 22.2847 12.9634C22.1896 12.9634 22.0961 12.9642 22.0043 12.9659C21.766 12.9701 21.5834 13.1456 21.5834 13.3839V13.3839C21.5834 13.602 21.5834 13.9083 21.5834 14.3029L21.599 15.4243V15.4243C21.599 15.6259 21.7552 15.7931 21.9562 15.8089C22.0337 15.8151 22.1172 15.8218 22.2067 15.8293C22.4665 15.8501 22.721 15.8708 22.9704 15.8916C23.2301 15.9124 23.4639 15.9383 23.6717 15.9695C23.8795 15.9902 24.0145 16.011 24.0769 16.0318C24.3782 16.146 24.6223 16.2966 24.8093 16.4835C24.8886 16.5627 24.9589 16.658 25.0203 16.7694C25.1099 16.9321 25.1104 17.1244 25.0898 17.309V17.309V17.309C25.0798 17.3997 24.9536 17.4428 24.8881 17.3792C24.7271 17.2226 24.5502 17.1109 24.3574 17.0442C24.2743 17.013 24.1028 16.9871 23.8431 16.9663C23.5937 16.9352 23.3184 16.9092 23.0171 16.8884C22.7262 16.8677 22.4457 16.8521 22.1756 16.8417C21.9545 16.8247 21.789 16.8147 21.6793 16.8116C21.6435 16.8106 21.6167 16.8424 21.6043 16.876V16.876C21.6009 16.8854 21.599 16.8937 21.599 16.9037V16.9077C21.599 16.9498 21.6309 16.9849 21.6728 16.9891C21.8686 17.0085 22.0725 17.0321 22.2847 17.0598C22.5236 17.0909 22.7002 17.1221 22.8145 17.1532C23.1238 17.233 23.4235 17.3798 23.7136 17.5936C23.7303 17.6059 23.7258 17.6321 23.7099 17.6453V17.6453C23.7042 17.65 23.703 17.656 23.6999 17.6627C23.6955 17.6721 23.686 17.684 23.6717 17.6984C23.6558 17.7142 23.643 17.727 23.6332 17.7368C23.6279 17.7421 23.6256 17.7482 23.6232 17.7553V17.7553C23.6189 17.7685 23.6011 17.7703 23.5896 17.7626C23.5208 17.717 23.4391 17.68 23.3444 17.6516V17.6516C23.232 17.6292 23.1162 17.6205 23.0015 17.6205V17.6205C22.9704 17.6205 22.908 17.6153 22.8145 17.6049C22.721 17.5945 22.6171 17.5841 22.5028 17.5738C22.3989 17.5634 22.3002 17.5582 22.2067 17.5582C22.1984 17.5573 22.1903 17.5564 22.1825 17.5555C22.0744 17.5439 21.9658 17.551 21.8582 17.5672C21.8033 17.5755 21.7565 17.5824 21.7178 17.5879C21.7113 17.5889 21.7036 17.5893 21.697 17.5895V17.5895C21.6368 17.5908 21.599 17.6455 21.599 17.7057V19.8634C21.599 19.9368 21.5625 19.9989 21.5259 20.0499C21.4491 20.1566 21.5462 20.2398 21.6745 20.2683V20.2683C21.9031 20.2995 21.4771 20.3057 21.7264 20.2642C21.9031 20.2227 22.0485 20.1811 22.1628 20.1396C22.2771 20.0981 22.3446 20.367 22.3966 20.3358C22.4588 20.2944 20.8606 21.2104 22.1389 20.2084C22.1441 20.2043 22.1494 20.1994 22.1536 20.1944L22.3064 20.0147C22.3595 19.9524 22.4577 20.0174 22.4211 20.0905V20.0905C22.4067 20.1193 22.414 20.1542 22.4387 20.1747L22.4487 20.1831C22.474 20.2041 22.485 20.2378 22.477 20.2697L22.4433 20.4044V20.4044C22.4207 20.4647 22.4653 20.529 22.5297 20.529H22.6666C22.7423 20.529 22.786 20.6149 22.7415 20.676V20.676C22.73 20.6918 22.7139 20.7036 22.6953 20.7096L22.1335 20.8924C22.1062 20.9013 22.1048 20.9394 22.1313 20.9503V20.9503C22.164 20.9638 22.1521 21.0127 22.1169 21.0096L21.2669 20.9347C21.2639 20.9344 21.2626 20.9306 21.2649 20.9286V20.9286C21.2673 20.9264 21.2658 20.9225 21.2626 20.9225C20.9948 20.9226 20.6965 20.9278 20.3678 20.9381C20.0457 20.9485 19.6873 20.964 19.2925 20.9848H19.012L18.4749 21.0054C18.3257 21.0112 18.2016 20.8918 18.2016 20.7425V20.7425C18.2016 20.6348 18.2685 20.535 18.3761 20.5332C18.3802 20.5331 18.3844 20.5331 18.3886 20.5331C18.4717 20.5227 18.5808 20.5071 18.7159 20.4864C18.9548 20.4656 19.1522 20.4397 19.3081 20.4085V20.4085C19.5576 20.342 19.7349 20.1323 19.7431 19.8742C19.744 19.8457 19.7444 19.8161 19.7444 19.7855V18.7321C19.7444 18.572 19.576 18.4679 19.4327 18.5394V18.5394C19.3392 18.581 19.2405 18.6277 19.1366 18.6796C18.8353 18.8146 18.5392 18.9029 18.2483 18.9444C18.0925 18.9756 17.9211 18.9807 17.734 18.96C17.547 18.9392 17.3756 18.9029 17.2198 18.8509C17.0535 18.7886 16.9081 18.7004 16.7834 18.5862C16.6678 18.4973 16.5713 18.3856 16.4937 18.2512C16.4674 18.2055 16.4509 18.155 16.4405 18.1033V18.1033C16.4302 18.0306 16.4302 17.9476 16.4405 17.8541C16.4489 17.787 16.4777 17.7233 16.5267 17.663C16.5494 17.6351 16.5863 17.6242 16.6217 17.6304L16.727 17.649C16.7704 17.6567 16.788 17.7094 16.7568 17.7405V17.7405C16.7542 17.7431 16.7512 17.7466 16.7492 17.7496C16.729 17.7797 16.704 17.8146 16.6743 17.8541V17.8541C16.5936 17.9953 16.6118 18.1787 16.7036 18.3129C16.7306 18.3524 16.7624 18.3864 16.799 18.4148C16.9237 18.4979 17.0431 18.5706 17.1574 18.6329C17.187 18.6498 17.2166 18.6652 17.2461 18.679C17.4644 18.7815 17.7111 18.8198 17.9522 18.8198V18.8198C17.9686 18.8198 17.9835 18.8194 17.997 18.8187C18.0506 18.8159 18.1081 18.8076 18.1605 18.7957V18.7957C18.1793 18.7915 18.1956 18.7872 18.2146 18.7841C18.5354 18.7319 18.822 18.6504 19.0743 18.5394C19.1886 18.4875 19.2977 18.4356 19.4016 18.3837V18.3837C19.606 18.2722 19.7421 18.0618 19.7384 17.829L19.7296 17.2623C19.7292 17.2363 19.708 17.2155 19.6821 17.2155V17.2155C19.5055 17.2363 19.3288 17.2571 19.1522 17.2778C18.9756 17.2882 18.799 17.3038 18.6224 17.3246C18.2068 17.3661 17.7652 17.3661 17.2977 17.3246C16.8509 17.2934 16.4094 17.2051 15.973 17.0598C15.7652 16.9767 15.5678 16.8884 15.3808 16.795C15.1938 16.6911 15.0172 16.5665 14.8509 16.4212C14.509 16.1416 14.2549 15.7794 14.0887 15.3345C14.0878 15.3321 14.0874 15.329 14.087 15.3265V15.3265C14.0849 15.3148 14.0717 15.3057 14.0717 15.2939C14.0717 15.2906 14.0717 15.2874 14.0717 15.2842V15.2842C14.0717 15.2427 14.0682 15.2013 14.0637 15.1601C14.043 14.972 14.0561 14.7798 14.1029 14.5833C14.1652 14.3756 14.2587 14.1835 14.3834 14.007C14.5185 13.8304 14.6743 13.6799 14.8509 13.5553C15.0483 13.4411 15.2457 13.3632 15.4432 13.3216C15.5055 13.3113 15.5678 13.3061 15.6302 13.3061C15.6925 13.3061 15.7496 13.3061 15.8016 13.3061V13.3061C16.03 13.3346 16.2471 13.2207 16.4126 13.0608C16.5093 12.9675 16.6173 12.8883 16.7366 12.8232C16.9756 12.709 17.225 12.6311 17.4847 12.5896C17.6094 12.5792 17.7496 12.5792 17.9055 12.5896C18.0821 12.6104 18.2275 12.6467 18.3418 12.6986C18.4769 12.7609 18.5964 12.844 18.7003 12.9478C18.8042 13.0621 18.8613 13.197 18.8717 13.3528C18.9133 13.602 18.8925 13.7941 18.8094 13.9291C18.7262 14.0641 18.6172 14.1783 18.4821 14.2718C18.4198 14.3133 18.3574 14.3548 18.2951 14.3964C18.2327 14.4275 18.1704 14.4587 18.1081 14.4898C17.9984 14.5496 17.927 14.638 17.8939 14.7551C17.8911 14.7651 17.8899 14.7754 17.8899 14.7857V14.7857C17.8899 14.8169 17.9107 14.8532 17.9522 14.8948V14.8948C18.0312 14.9737 17.9792 15.0978 17.8707 15.0716C17.8052 15.0558 17.7389 15.0332 17.6717 15.0038C17.5055 14.9311 17.4068 14.8065 17.3756 14.63C17.3548 14.4431 17.4016 14.2925 17.5159 14.1783C17.6198 14.0537 17.7444 13.9447 17.8899 13.8512C17.9626 13.7993 18.0301 13.7526 18.0925 13.711C18.1548 13.6695 18.2172 13.628 18.2795 13.5864C18.4042 13.4826 18.4509 13.3684 18.4198 13.2438C18.399 13.1503 18.3626 13.0828 18.3107 13.0413C18.2587 12.9998 18.1808 12.9582 18.0769 12.9167C18.05 12.9059 18.0245 12.898 18.0004 12.8928C17.9586 12.8838 17.9157 12.8803 17.8743 12.87V12.87C17.8329 12.8596 17.7904 12.8541 17.7477 12.855C17.666 12.8566 17.6043 12.8616 17.5626 12.87C17.2994 12.9104 17.0625 13.01 16.8519 13.1688C16.6643 13.3102 16.7231 13.5833 16.8613 13.7733V13.7733C16.9548 13.8979 17.0172 14.0329 17.0483 14.1783C17.0691 14.3237 17.0535 14.469 17.0016 14.6144C16.9808 14.6975 16.9548 14.7754 16.9237 14.848V14.848C16.8879 14.9553 16.9143 15.0826 17.0164 15.1309C17.229 15.2316 17.463 15.3138 17.7185 15.3776C17.8639 15.4191 18.0146 15.4555 18.1704 15.4866C18.3262 15.5074 18.4821 15.5282 18.6379 15.5489C18.7938 15.5697 18.9496 15.5905 19.1055 15.6112C19.2552 15.6212 19.4098 15.6264 19.5691 15.6268C19.582 15.6268 19.5898 15.6276 19.6023 15.6308V15.6308C19.6673 15.6472 19.7278 15.5873 19.7264 15.5202L19.6821 13.2593V13.1033C19.6821 13.0847 19.6707 13.0679 19.6534 13.061L19.4927 12.9967C19.4717 12.9883 19.4791 12.9569 19.5016 12.9588V12.9588C19.5202 12.9603 19.5304 12.9377 19.5169 12.9248L19.2475 12.6684C19.2363 12.6577 19.2292 12.6435 19.2275 12.6281V12.6281C19.2218 12.5772 19.2742 12.5398 19.3206 12.5616L19.4158 12.6064C19.4454 12.6203 19.4795 12.5987 19.4795 12.566V12.566C19.4795 12.561 19.4787 12.556 19.477 12.5513L19.3647 12.2269C19.3514 12.1885 19.3758 12.1474 19.4159 12.1407V12.1407C19.4269 12.1389 19.4375 12.1341 19.4462 12.1271V12.1271C19.4973 12.0863 19.5733 12.1276 19.5647 12.1924L19.5574 12.2469C19.5574 12.2573 19.5626 12.2729 19.573 12.2937C19.5783 12.3044 19.5837 12.3164 19.589 12.3299C19.5998 12.357 19.6112 12.3785 19.6318 12.3991V12.3991C19.6619 12.4293 19.7051 12.4522 19.7476 12.4563C19.7836 12.4597 19.8144 12.4622 19.84 12.4636C19.8697 12.4652 19.8993 12.4617 19.9289 12.4582C19.9796 12.4524 20.048 12.4494 20.134 12.4494C20.2171 12.4494 20.3574 12.4494 20.5548 12.4494C20.7626 12.4494 21.0327 12.439 21.3652 12.4183C21.7392 12.3975 22.0197 12.3871 22.2067 12.3871C22.3938 12.3767 22.5912 12.3715 22.7989 12.3715H23.4379C23.7392 12.3819 24.0509 12.3975 24.373 12.4183C24.5285 12.428 24.6692 12.4445 24.7951 12.4678C25.049 12.5149 25.2894 12.6396 25.4327 12.8544V12.8544C25.5262 12.9686 25.6093 13.0932 25.682 13.2282C25.7548 13.3528 25.8119 13.467 25.8535 13.5709C25.9054 13.6747 25.9366 13.737 25.947 13.7578C25.9781 13.8408 26.0041 13.9291 26.0249 14.0225C26.0561 14.116 26.082 14.2043 26.1028 14.2873C26.1236 14.3808 26.1444 14.469 26.1652 14.5521C26.1838 14.6265 26.2024 14.701 26.221 14.7754C26.2253 14.7926 26.2275 14.8103 26.2275 14.828C26.2275 14.8388 26.2275 14.8505 26.2275 14.8632C26.2275 14.8737 26.2305 14.8847 26.2342 14.8946V14.8946ZM19.6653 12.5285C19.6416 12.5082 19.6141 12.5297 19.632 12.5554C19.6349 12.5596 19.6379 12.5638 19.641 12.5681C19.6543 12.5864 19.6821 12.5766 19.6821 12.554V12.554C19.6821 12.5469 19.679 12.5402 19.6736 12.5356L19.6653 12.5285ZM16.3003 14.007C16.2899 14.142 16.2899 14.2562 16.3003 14.3496C16.3107 14.4535 16.3522 14.5573 16.425 14.6611C16.4542 14.7099 16.4835 14.754 16.5127 14.7936C16.5165 14.7988 16.5212 14.804 16.5257 14.8086V14.8086C16.5835 14.8672 16.6808 14.8743 16.7297 14.808C16.7672 14.7573 16.7976 14.7052 16.8211 14.6516C16.8274 14.6373 16.8344 14.6233 16.8418 14.6096C16.895 14.5112 16.9119 14.4038 16.8925 14.2873C16.8821 14.1731 16.825 14.0485 16.7211 13.9135C16.7078 13.8969 16.6939 13.881 16.6793 13.8658C16.5414 13.7216 16.3156 13.8081 16.3003 14.007V14.007ZM19.0587 17.1844C19.173 17.174 19.2821 17.1636 19.386 17.1532C19.4563 17.1468 19.5267 17.1385 19.597 17.1281C19.6736 17.1169 19.7288 17.0503 19.7288 16.9729V16.9729C19.7288 16.8966 19.6749 16.8291 19.5987 16.8266C19.5901 16.8263 19.5815 16.8261 19.573 16.8261C19.5314 16.8261 19.4847 16.8209 19.4327 16.8106C19.2873 16.8002 19.1366 16.7898 18.9808 16.7794C18.8353 16.7586 18.6847 16.7327 18.5288 16.7015C18.373 16.6808 18.2172 16.6548 18.0613 16.6237C17.9159 16.5821 17.7704 16.5354 17.625 16.4835C17.4795 16.4316 17.334 16.3744 17.1886 16.3121C17.0535 16.2395 16.9237 16.1616 16.799 16.0785C16.6639 15.9954 16.5392 15.902 16.425 15.7982V15.7982C16.2206 15.594 15.9574 15.4563 15.6913 15.344C15.639 15.3219 15.5874 15.2968 15.5367 15.2686C15.3393 15.1544 15.225 14.9882 15.1938 14.7702C15.1834 14.6144 15.2146 14.469 15.2873 14.3341C15.3366 14.2496 15.3931 14.1675 15.4567 14.0878C15.5046 14.0278 15.5952 14.0317 15.642 14.0925V14.0925C15.6798 14.1416 15.6746 14.2105 15.6348 14.2579C15.6222 14.2729 15.6102 14.2879 15.599 14.3029C15.5678 14.3444 15.5367 14.3912 15.5055 14.4431C15.4535 14.5365 15.438 14.6404 15.4587 14.7546C15.4691 14.8792 15.5315 14.9882 15.6457 15.0817C15.7322 15.1681 15.8295 15.2186 15.9376 15.2331C15.968 15.2371 15.988 15.2052 15.9743 15.1778V15.1778C15.9735 15.176 15.9727 15.1742 15.9721 15.1724C15.9617 15.1418 15.9464 15.1064 15.9263 15.0661V15.0661C15.8834 14.9662 15.8658 14.857 15.8545 14.7489C15.8377 14.589 15.8409 14.4092 15.8639 14.2095C15.8835 14.0594 15.9154 13.9155 15.9596 13.7777C16.0018 13.6462 15.9397 13.493 15.8016 13.493V13.493C15.7496 13.493 15.7029 13.493 15.6613 13.493C15.6198 13.493 15.573 13.4982 15.5211 13.5086C15.3341 13.5397 15.1574 13.6124 14.9912 13.7266C14.8458 13.8304 14.7159 13.9706 14.6016 14.1471C14.5081 14.2821 14.4354 14.4639 14.3834 14.6923C14.3419 14.8688 14.3367 15.0557 14.3678 15.253C14.399 15.5334 14.5029 15.7878 14.6795 16.0162C14.8354 16.2239 15.0328 16.4108 15.2717 16.5769C15.386 16.6496 15.5055 16.7171 15.6302 16.7794C15.7548 16.8313 15.8899 16.8832 16.0354 16.9352C16.2951 17.039 16.56 17.1065 16.8302 17.1376C16.747 17.1169 16.6691 17.1013 16.5964 17.0909C16.5237 17.0702 16.4509 17.0442 16.3782 17.013C16.2951 16.9819 16.2224 16.9455 16.16 16.904C16.0977 16.8625 16.0354 16.8158 15.973 16.7638C15.8587 16.6808 15.7496 16.5665 15.6457 16.4212C15.5522 16.2758 15.5003 16.1252 15.4899 15.9695C15.4899 15.9383 15.4899 15.9228 15.4899 15.9228C15.4899 15.9228 15.4899 15.9228 15.4899 15.9228V15.9228C15.4899 15.8991 15.4995 15.8666 15.5217 15.8583L15.5759 15.838C15.5908 15.8324 15.6073 15.8319 15.6222 15.8376C15.6385 15.8438 15.6559 15.8513 15.6746 15.8599C15.6969 15.8702 15.717 15.8849 15.7344 15.9023V15.9023C15.7774 15.9453 15.8055 16.0045 15.7919 16.0638C15.7887 16.0779 15.7847 16.0913 15.7799 16.1038C15.7743 16.1184 15.7679 16.1328 15.763 16.1476V16.1476C15.7377 16.2234 15.7371 16.3083 15.7833 16.3735C15.8291 16.4383 15.8924 16.5009 15.973 16.5614C16.025 16.6029 16.0769 16.6392 16.1289 16.6704C16.1513 16.6838 16.1737 16.6982 16.1961 16.7136C16.2255 16.7338 16.2704 16.7058 16.2694 16.6701V16.6701C16.2691 16.6602 16.2734 16.6511 16.279 16.643C16.2865 16.6323 16.292 16.6197 16.2956 16.6051C16.3023 16.5772 16.3093 16.5488 16.3259 16.5255L16.3277 16.523C16.3589 16.4794 16.4115 16.4552 16.4639 16.4664C16.6057 16.4966 16.733 16.5594 16.8457 16.6548V16.6548C17.085 16.8427 17.2529 17.1697 17.5539 17.2143C17.6999 17.2359 17.8534 17.2467 18.0146 17.2467C18.1912 17.2467 18.3626 17.2415 18.5288 17.2311C18.7055 17.2207 18.8821 17.2051 19.0587 17.1844ZM21.599 17.4551C21.599 17.469 21.6102 17.4803 21.6242 17.4803V17.4803C21.6281 17.4803 21.6319 17.4793 21.6355 17.4778C21.6562 17.4691 21.6855 17.4647 21.7236 17.4647V17.4647C21.8176 17.4647 21.9113 17.4499 22.0047 17.461C22.0145 17.4622 22.0247 17.4634 22.0353 17.4647C22.1288 17.4751 22.2275 17.4855 22.3314 17.4959C22.4457 17.4959 22.5444 17.5011 22.6275 17.5115C22.721 17.5115 22.7834 17.5115 22.8145 17.5115V17.5115C22.9285 17.5115 23.0434 17.527 23.1574 17.527V17.527V17.527C23.1864 17.527 23.2052 17.4658 23.1783 17.4548C23.0179 17.3892 22.8291 17.3354 22.6119 17.2934C22.2899 17.2311 22.0145 17.1896 21.786 17.1688H21.7547C21.6687 17.1688 21.599 17.2385 21.599 17.3246V17.4551Z" fill="#5D1815"/>
<path d="M26.2342 14.8946C26.2445 14.9219 26.2245 14.9481 26.1964 14.9556C26.195 14.956 26.1936 14.9564 26.1922 14.9568C26.1424 14.9699 26.1061 14.9207 26.1144 14.8699C26.1234 14.8145 26.1247 14.7553 26.1184 14.6923C26.1184 14.5573 26.0768 14.3964 25.9937 14.2095C25.9854 14.1872 25.9766 14.1654 25.9673 14.144C25.8506 13.8733 25.6609 13.6329 25.4327 13.4463V13.4463C25.3496 13.3943 25.2769 13.3528 25.2145 13.3216C25.1522 13.2801 25.0639 13.2438 24.9496 13.2126C24.8353 13.1815 24.7002 13.1451 24.5444 13.1036C24.4093 13.0724 24.2431 13.0465 24.0457 13.0257C23.8587 12.9946 23.6457 12.9738 23.4067 12.9634H23.0639C22.7938 12.9634 22.534 12.9634 22.2847 12.9634C22.1896 12.9634 22.0961 12.9642 22.0043 12.9659C21.766 12.9701 21.5834 13.1456 21.5834 13.3839V13.3839C21.5834 13.602 21.5834 13.9083 21.5834 14.3029L21.599 15.4243V15.4243C21.599 15.6259 21.7552 15.7931 21.9562 15.8089C22.0337 15.8151 22.1172 15.8218 22.2067 15.8293C22.4665 15.8501 22.721 15.8708 22.9704 15.8916C23.2301 15.9124 23.4639 15.9383 23.6717 15.9695C23.8795 15.9902 24.0145 16.011 24.0769 16.0318C24.3782 16.146 24.6223 16.2966 24.8093 16.4835C24.8886 16.5627 24.9589 16.658 25.0203 16.7694C25.1099 16.9321 25.1104 17.1244 25.0898 17.309V17.309V17.309C25.0798 17.3997 24.9536 17.4428 24.8881 17.3792C24.7271 17.2226 24.5502 17.1109 24.3574 17.0442C24.2743 17.013 24.1028 16.9871 23.8431 16.9663C23.5937 16.9352 23.3184 16.9092 23.0171 16.8884C22.7262 16.8677 22.4457 16.8521 22.1756 16.8417C21.9545 16.8247 21.789 16.8147 21.6793 16.8116C21.6435 16.8106 21.6167 16.8424 21.6043 16.876V16.876C21.6009 16.8854 21.599 16.8937 21.599 16.9037V16.9077C21.599 16.9498 21.6309 16.9849 21.6728 16.9891C21.8686 17.0085 22.0725 17.0321 22.2847 17.0598C22.5236 17.0909 22.7002 17.1221 22.8145 17.1532C23.1238 17.233 23.4235 17.3798 23.7136 17.5936C23.7303 17.6059 23.7258 17.6321 23.7099 17.6453V17.6453C23.7042 17.65 23.703 17.656 23.6999 17.6627C23.6955 17.6721 23.686 17.684 23.6717 17.6984C23.6558 17.7142 23.643 17.727 23.6332 17.7368C23.6279 17.7421 23.6256 17.7482 23.6232 17.7553V17.7553C23.6189 17.7685 23.6011 17.7703 23.5896 17.7626C23.5208 17.717 23.4391 17.68 23.3444 17.6516V17.6516C23.232 17.6292 23.1162 17.6205 23.0015 17.6205V17.6205C22.9704 17.6205 22.908 17.6153 22.8145 17.6049C22.721 17.5945 22.6171 17.5841 22.5028 17.5738C22.3989 17.5634 22.3002 17.5582 22.2067 17.5582C22.1984 17.5573 22.1903 17.5564 22.1825 17.5555C22.0744 17.5439 21.9658 17.551 21.8582 17.5672C21.8033 17.5755 21.7565 17.5824 21.7178 17.5879C21.7113 17.5889 21.7036 17.5893 21.697 17.5895V17.5895C21.6368 17.5908 21.599 17.6455 21.599 17.7057V19.8634C21.599 19.9368 21.5625 19.9989 21.5259 20.0499C21.4491 20.1566 21.5462 20.2398 21.6745 20.2683V20.2683C21.9031 20.2995 21.4771 20.3057 21.7264 20.2642C21.9031 20.2227 22.0485 20.1811 22.1628 20.1396C22.2771 20.0981 22.3446 20.367 22.3966 20.3358C22.4588 20.2944 20.8606 21.2104 22.1389 20.2084C22.1441 20.2043 22.1494 20.1994 22.1536 20.1944L22.3064 20.0147C22.3595 19.9524 22.4577 20.0174 22.4211 20.0905V20.0905C22.4067 20.1193 22.414 20.1542 22.4387 20.1747L22.4487 20.1831C22.474 20.2041 22.485 20.2378 22.477 20.2697L22.4433 20.4044V20.4044C22.4207 20.4647 22.4653 20.529 22.5297 20.529H22.6666C22.7423 20.529 22.786 20.6149 22.7415 20.676V20.676C22.73 20.6918 22.7139 20.7036 22.6953 20.7096L22.1335 20.8924C22.1062 20.9013 22.1048 20.9394 22.1313 20.9503V20.9503C22.164 20.9638 22.1521 21.0127 22.1169 21.0096L21.2669 20.9347C21.2639 20.9344 21.2626 20.9306 21.2649 20.9286V20.9286C21.2673 20.9264 21.2658 20.9225 21.2626 20.9225C20.9948 20.9226 20.6965 20.9278 20.3678 20.9381C20.0457 20.9485 19.6873 20.964 19.2925 20.9848H19.012L18.4749 21.0054C18.3257 21.0112 18.2016 20.8918 18.2016 20.7425V20.7425C18.2016 20.6348 18.2685 20.535 18.3761 20.5332C18.3802 20.5331 18.3844 20.5331 18.3886 20.5331C18.4717 20.5227 18.5808 20.5071 18.7159 20.4864C18.9548 20.4656 19.1522 20.4397 19.3081 20.4085V20.4085C19.5576 20.342 19.7349 20.1323 19.7431 19.8742C19.744 19.8457 19.7444 19.8161 19.7444 19.7855V18.7321C19.7444 18.572 19.576 18.4679 19.4327 18.5394V18.5394C19.3392 18.581 19.2405 18.6277 19.1366 18.6796C18.8353 18.8146 18.5392 18.9029 18.2483 18.9444C18.0925 18.9756 17.9211 18.9807 17.734 18.96C17.547 18.9392 17.3756 18.9029 17.2198 18.8509C17.0535 18.7886 16.9081 18.7004 16.7834 18.5862C16.6678 18.4973 16.5713 18.3856 16.4937 18.2512C16.4674 18.2055 16.4509 18.155 16.4405 18.1033V18.1033C16.4302 18.0306 16.4302 17.9476 16.4405 17.8541C16.4489 17.787 16.4777 17.7233 16.5267 17.663C16.5494 17.6351 16.5863 17.6242 16.6217 17.6304L16.727 17.649C16.7704 17.6567 16.788 17.7094 16.7568 17.7405V17.7405C16.7542 17.7431 16.7512 17.7466 16.7492 17.7496C16.729 17.7797 16.704 17.8146 16.6743 17.8541V17.8541C16.5936 17.9953 16.6118 18.1787 16.7036 18.3129C16.7306 18.3524 16.7624 18.3864 16.799 18.4148C16.9237 18.4979 17.0431 18.5706 17.1574 18.6329C17.187 18.6498 17.2166 18.6652 17.2461 18.679C17.4644 18.7815 17.7111 18.8198 17.9522 18.8198V18.8198C17.9686 18.8198 17.9835 18.8194 17.997 18.8187C18.0506 18.8159 18.1081 18.8076 18.1605 18.7957V18.7957C18.1793 18.7915 18.1956 18.7872 18.2146 18.7841C18.5354 18.7319 18.822 18.6504 19.0743 18.5394C19.1886 18.4875 19.2977 18.4356 19.4016 18.3837V18.3837C19.606 18.2722 19.7421 18.0618 19.7384 17.829L19.7296 17.2623C19.7292 17.2363 19.708 17.2155 19.6821 17.2155V17.2155C19.5055 17.2363 19.3288 17.2571 19.1522 17.2778C18.9756 17.2882 18.799 17.3038 18.6224 17.3246C18.2068 17.3661 17.7652 17.3661 17.2977 17.3246C16.8509 17.2934 16.4094 17.2051 15.973 17.0598C15.7652 16.9767 15.5678 16.8884 15.3808 16.795C15.1938 16.6911 15.0172 16.5665 14.8509 16.4212C14.509 16.1416 14.2549 15.7794 14.0887 15.3345C14.0878 15.3321 14.0874 15.329 14.087 15.3265V15.3265C14.0849 15.3148 14.0717 15.3057 14.0717 15.2939C14.0717 15.2906 14.0717 15.2874 14.0717 15.2842V15.2842C14.0717 15.2427 14.0682 15.2013 14.0637 15.1601C14.043 14.972 14.0561 14.7798 14.1029 14.5833C14.1652 14.3756 14.2587 14.1835 14.3834 14.007C14.5185 13.8304 14.6743 13.6799 14.8509 13.5553C15.0483 13.4411 15.2457 13.3632 15.4432 13.3216C15.5055 13.3113 15.5678 13.3061 15.6302 13.3061C15.6925 13.3061 15.7496 13.3061 15.8016 13.3061V13.3061C16.03 13.3346 16.2471 13.2207 16.4126 13.0608C16.5093 12.9675 16.6173 12.8883 16.7366 12.8232C16.9756 12.709 17.225 12.6311 17.4847 12.5896C17.6094 12.5792 17.7496 12.5792 17.9055 12.5896C18.0821 12.6104 18.2275 12.6467 18.3418 12.6986C18.4769 12.7609 18.5964 12.844 18.7003 12.9478C18.8042 13.0621 18.8613 13.197 18.8717 13.3528C18.9133 13.602 18.8925 13.7941 18.8094 13.9291C18.7262 14.0641 18.6172 14.1783 18.4821 14.2718C18.4198 14.3133 18.3574 14.3548 18.2951 14.3964C18.2327 14.4275 18.1704 14.4587 18.1081 14.4898C17.9984 14.5496 17.927 14.638 17.8939 14.7551C17.8911 14.7651 17.8899 14.7754 17.8899 14.7857V14.7857C17.8899 14.8169 17.9107 14.8532 17.9522 14.8948V14.8948C18.0312 14.9737 17.9792 15.0978 17.8707 15.0716C17.8052 15.0558 17.7389 15.0332 17.6717 15.0038C17.5055 14.9311 17.4068 14.8065 17.3756 14.63C17.3548 14.4431 17.4016 14.2925 17.5159 14.1783C17.6198 14.0537 17.7444 13.9447 17.8899 13.8512C17.9626 13.7993 18.0301 13.7526 18.0925 13.711C18.1548 13.6695 18.2172 13.628 18.2795 13.5864C18.4042 13.4826 18.4509 13.3684 18.4198 13.2438C18.399 13.1503 18.3626 13.0828 18.3107 13.0413C18.2587 12.9998 18.1808 12.9582 18.0769 12.9167C18.05 12.9059 18.0245 12.898 18.0004 12.8928C17.9586 12.8838 17.9157 12.8803 17.8743 12.87V12.87C17.8329 12.8596 17.7904 12.8541 17.7477 12.855C17.666 12.8566 17.6043 12.8616 17.5626 12.87C17.2994 12.9104 17.0625 13.01 16.8519 13.1688C16.6643 13.3102 16.7231 13.5833 16.8613 13.7733V13.7733C16.9548 13.8979 17.0172 14.0329 17.0483 14.1783C17.0691 14.3237 17.0535 14.469 17.0016 14.6144C16.9808 14.6975 16.9548 14.7754 16.9237 14.848V14.848C16.8879 14.9553 16.9143 15.0826 17.0164 15.1309C17.229 15.2316 17.463 15.3138 17.7185 15.3776C17.8639 15.4191 18.0146 15.4555 18.1704 15.4866C18.3262 15.5074 18.4821 15.5282 18.6379 15.5489C18.7938 15.5697 18.9496 15.5905 19.1055 15.6112C19.2552 15.6212 19.4098 15.6264 19.5691 15.6268C19.582 15.6268 19.5898 15.6276 19.6023 15.6308V15.6308C19.6673 15.6472 19.7278 15.5873 19.7264 15.5202L19.6821 13.2593V13.1033C19.6821 13.0847 19.6707 13.0679 19.6534 13.061L19.4927 12.9967C19.4717 12.9883 19.4791 12.9569 19.5016 12.9588V12.9588C19.5202 12.9603 19.5304 12.9377 19.5169 12.9248L19.2475 12.6684C19.2363 12.6577 19.2292 12.6435 19.2275 12.6281V12.6281C19.2218 12.5772 19.2742 12.5398 19.3206 12.5616L19.4158 12.6064C19.4454 12.6203 19.4795 12.5987 19.4795 12.566V12.566C19.4795 12.561 19.4787 12.556 19.477 12.5513L19.3647 12.2269C19.3514 12.1885 19.3758 12.1474 19.4159 12.1407V12.1407C19.4269 12.1389 19.4375 12.1341 19.4462 12.1271V12.1271C19.4973 12.0863 19.5733 12.1276 19.5647 12.1924L19.5574 12.2469C19.5574 12.2573 19.5626 12.2729 19.573 12.2937C19.5783 12.3044 19.5837 12.3164 19.589 12.3299C19.5998 12.357 19.6112 12.3785 19.6318 12.3991V12.3991C19.6619 12.4293 19.7051 12.4522 19.7476 12.4563C19.7836 12.4597 19.8144 12.4622 19.84 12.4636C19.8697 12.4652 19.8993 12.4617 19.9289 12.4582C19.9796 12.4524 20.048 12.4494 20.134 12.4494C20.2171 12.4494 20.3574 12.4494 20.5548 12.4494C20.7626 12.4494 21.0327 12.439 21.3652 12.4183C21.7392 12.3975 22.0197 12.3871 22.2067 12.3871C22.3938 12.3767 22.5912 12.3715 22.7989 12.3715H23.4379C23.7392 12.3819 24.0509 12.3975 24.373 12.4183C24.5285 12.428 24.6692 12.4445 24.7951 12.4678C25.049 12.5149 25.2894 12.6396 25.4327 12.8544V12.8544C25.5262 12.9686 25.6093 13.0932 25.682 13.2282C25.7548 13.3528 25.8119 13.467 25.8535 13.5709C25.9054 13.6747 25.9366 13.737 25.947 13.7578C25.9781 13.8408 26.0041 13.9291 26.0249 14.0225C26.0561 14.116 26.082 14.2043 26.1028 14.2873C26.1236 14.3808 26.1444 14.469 26.1652 14.5521C26.1838 14.6265 26.2024 14.701 26.221 14.7754C26.2253 14.7926 26.2275 14.8103 26.2275 14.828C26.2275 14.8388 26.2275 14.8505 26.2275 14.8632C26.2275 14.8737 26.2305 14.8847 26.2342 14.8946V14.8946ZM19.6653 12.5285C19.6416 12.5082 19.6141 12.5297 19.632 12.5554C19.6349 12.5596 19.6379 12.5638 19.641 12.5681C19.6543 12.5864 19.6821 12.5766 19.6821 12.554V12.554C19.6821 12.5469 19.679 12.5402 19.6736 12.5356L19.6653 12.5285ZM16.3003 14.007C16.2899 14.142 16.2899 14.2562 16.3003 14.3496C16.3107 14.4535 16.3522 14.5573 16.425 14.6611C16.4542 14.7099 16.4835 14.754 16.5127 14.7936C16.5165 14.7988 16.5212 14.804 16.5257 14.8086V14.8086C16.5835 14.8672 16.6808 14.8743 16.7297 14.808C16.7672 14.7573 16.7976 14.7052 16.8211 14.6516C16.8274 14.6373 16.8344 14.6233 16.8418 14.6096C16.895 14.5112 16.9119 14.4038 16.8925 14.2873C16.8821 14.1731 16.825 14.0485 16.7211 13.9135C16.7078 13.8969 16.6939 13.881 16.6793 13.8658C16.5414 13.7216 16.3156 13.8081 16.3003 14.007V14.007ZM19.0587 17.1844C19.173 17.174 19.2821 17.1636 19.386 17.1532C19.4563 17.1468 19.5267 17.1385 19.597 17.1281C19.6736 17.1169 19.7288 17.0503 19.7288 16.9729V16.9729C19.7288 16.8966 19.6749 16.8291 19.5987 16.8266C19.5901 16.8263 19.5815 16.8261 19.573 16.8261C19.5314 16.8261 19.4847 16.8209 19.4327 16.8106C19.2873 16.8002 19.1366 16.7898 18.9808 16.7794C18.8353 16.7586 18.6847 16.7327 18.5288 16.7015C18.373 16.6808 18.2172 16.6548 18.0613 16.6237C17.9159 16.5821 17.7704 16.5354 17.625 16.4835C17.4795 16.4316 17.334 16.3744 17.1886 16.3121C17.0535 16.2395 16.9237 16.1616 16.799 16.0785C16.6639 15.9954 16.5392 15.902 16.425 15.7982V15.7982C16.2206 15.594 15.9574 15.4563 15.6913 15.344C15.639 15.3219 15.5874 15.2968 15.5367 15.2686C15.3393 15.1544 15.225 14.9882 15.1938 14.7702C15.1834 14.6144 15.2146 14.469 15.2873 14.3341C15.3366 14.2496 15.3931 14.1675 15.4567 14.0878C15.5046 14.0278 15.5952 14.0317 15.642 14.0925V14.0925C15.6798 14.1416 15.6746 14.2105 15.6348 14.2579C15.6222 14.2729 15.6102 14.2879 15.599 14.3029C15.5678 14.3444 15.5367 14.3912 15.5055 14.4431C15.4535 14.5365 15.438 14.6404 15.4587 14.7546C15.4691 14.8792 15.5315 14.9882 15.6457 15.0817C15.7322 15.1681 15.8295 15.2186 15.9376 15.2331C15.968 15.2371 15.988 15.2052 15.9743 15.1778V15.1778C15.9735 15.176 15.9727 15.1742 15.9721 15.1724C15.9617 15.1418 15.9464 15.1064 15.9263 15.0661V15.0661C15.8834 14.9662 15.8658 14.857 15.8545 14.7489C15.8377 14.589 15.8409 14.4092 15.8639 14.2095C15.8835 14.0594 15.9154 13.9155 15.9596 13.7777C16.0018 13.6462 15.9397 13.493 15.8016 13.493V13.493C15.7496 13.493 15.7029 13.493 15.6613 13.493C15.6198 13.493 15.573 13.4982 15.5211 13.5086C15.3341 13.5397 15.1574 13.6124 14.9912 13.7266C14.8458 13.8304 14.7159 13.9706 14.6016 14.1471C14.5081 14.2821 14.4354 14.4639 14.3834 14.6923C14.3419 14.8688 14.3367 15.0557 14.3678 15.253C14.399 15.5334 14.5029 15.7878 14.6795 16.0162C14.8354 16.2239 15.0328 16.4108 15.2717 16.5769C15.386 16.6496 15.5055 16.7171 15.6302 16.7794C15.7548 16.8313 15.8899 16.8832 16.0354 16.9352C16.2951 17.039 16.56 17.1065 16.8302 17.1376C16.747 17.1169 16.6691 17.1013 16.5964 17.0909C16.5237 17.0702 16.4509 17.0442 16.3782 17.013C16.2951 16.9819 16.2224 16.9455 16.16 16.904C16.0977 16.8625 16.0354 16.8158 15.973 16.7638C15.8587 16.6808 15.7496 16.5665 15.6457 16.4212C15.5522 16.2758 15.5003 16.1252 15.4899 15.9695C15.4899 15.9383 15.4899 15.9228 15.4899 15.9228C15.4899 15.9228 15.4899 15.9228 15.4899 15.9228V15.9228C15.4899 15.8991 15.4995 15.8666 15.5217 15.8583L15.5759 15.838C15.5908 15.8324 15.6073 15.8319 15.6222 15.8376C15.6385 15.8438 15.6559 15.8513 15.6746 15.8599C15.6969 15.8702 15.717 15.8849 15.7344 15.9023V15.9023C15.7774 15.9453 15.8055 16.0045 15.7919 16.0638C15.7887 16.0779 15.7847 16.0913 15.7799 16.1038C15.7743 16.1184 15.7679 16.1328 15.763 16.1476V16.1476C15.7377 16.2234 15.7371 16.3083 15.7833 16.3735C15.8291 16.4383 15.8924 16.5009 15.973 16.5614C16.025 16.6029 16.0769 16.6392 16.1289 16.6704C16.1513 16.6838 16.1737 16.6982 16.1961 16.7136C16.2255 16.7338 16.2704 16.7058 16.2694 16.6701V16.6701C16.2691 16.6602 16.2734 16.6511 16.279 16.643C16.2865 16.6323 16.292 16.6197 16.2956 16.6051C16.3023 16.5772 16.3093 16.5488 16.3259 16.5255L16.3277 16.523C16.3589 16.4794 16.4115 16.4552 16.4639 16.4664C16.6057 16.4966 16.733 16.5594 16.8457 16.6548V16.6548C17.085 16.8427 17.2529 17.1697 17.5539 17.2143C17.6999 17.2359 17.8534 17.2467 18.0146 17.2467C18.1912 17.2467 18.3626 17.2415 18.5288 17.2311C18.7055 17.2207 18.8821 17.2051 19.0587 17.1844ZM21.599 17.4551C21.599 17.469 21.6102 17.4803 21.6242 17.4803V17.4803C21.6281 17.4803 21.6319 17.4793 21.6355 17.4778C21.6562 17.4691 21.6855 17.4647 21.7236 17.4647V17.4647C21.8176 17.4647 21.9113 17.4499 22.0047 17.461C22.0145 17.4622 22.0247 17.4634 22.0353 17.4647C22.1288 17.4751 22.2275 17.4855 22.3314 17.4959C22.4457 17.4959 22.5444 17.5011 22.6275 17.5115C22.721 17.5115 22.7834 17.5115 22.8145 17.5115V17.5115C22.9285 17.5115 23.0434 17.527 23.1574 17.527V17.527V17.527C23.1864 17.527 23.2052 17.4658 23.1783 17.4548C23.0179 17.3892 22.8291 17.3354 22.6119 17.2934C22.2899 17.2311 22.0145 17.1896 21.786 17.1688H21.7547C21.6687 17.1688 21.599 17.2385 21.599 17.3246V17.4551Z" stroke="url(#paint0_linear)" mask="url(#path-6-outside-1)"/>
</g>
<path d="M26.3857 29.1504C26.4991 29.5737 26.2479 30.0089 25.8247 30.1224L12.6915 33.6426C12.2683 33.756 11.8332 33.5047 11.7198 33.0814L6.88123 15.0172C6.76783 14.5938 7.01901 14.1586 7.44224 14.0452L10.4256 13.2605" stroke="#5D1815" stroke-width="0.4"/>
<path d="M29.4178 13.0905L32.7909 14.0591C33.2193 14.1742 33.4735 14.6153 33.3587 15.0444L28.4615 33.3568C28.3467 33.786 27.9064 34.0407 27.4781 33.9257L24.2588 32.9895" stroke="#5D1815" stroke-width="0.4"/>
</g>
<defs>
<filter id="filter0_di" x="10.5542" y="8.61206" width="19.1868" height="15.898" filterUnits="userSpaceOnUse" color-interpolation-filters="sRGB">
<feFlood flood-opacity="0" result="BackgroundImageFix"/>
<feColorMatrix in="SourceAlpha" type="matrix" values="0 0 0 0 0 0 0 0 0 0 0 0 0 0 0 0 0 0 127 0"/>
<feOffset/>
<feGaussianBlur stdDeviation="1.5"/>
<feColorMatrix type="matrix" values="0 0 0 0 1 0 0 0 0 0.858824 0 0 0 0 0.498039 0 0 0 1 0"/>
<feBlend mode="normal" in2="BackgroundImageFix" result="effect1_dropShadow"/>
<feBlend mode="normal" in="SourceGraphic" in2="effect1_dropShadow" result="shape"/>
<feColorMatrix in="SourceAlpha" type="matrix" values="0 0 0 0 0 0 0 0 0 0 0 0 0 0 0 0 0 0 127 0" result="hardAlpha"/>
<feOffset dx="3" dy="1"/>
<feGaussianBlur stdDeviation="0.5"/>
<feComposite in2="hardAlpha" operator="arithmetic" k2="-1" k3="1"/>
<feColorMatrix type="matrix" values="0 0 0 0 0.0392157 0 0 0 0 0 0 0 0 0 0.0392157 0 0 0 1 0"/>
<feBlend mode="normal" in2="shape" result="effect2_innerShadow"/>
</filter>
<linearGradient id="paint0_linear" x1="20.1486" y1="12.0133" x2="20.1486" y2="21.0274" gradientUnits="userSpaceOnUse">
<stop stop-color="#F1DBA6"/>
<stop offset="0.536458" stop-color="#EBD49E"/>
<stop offset="1" stop-color="#C8AE77"/>
</linearGradient>
<clipPath id="clip0">
<rect width="29.0265" height="29.0265" fill="white" transform="translate(5.66357 5.6637)"/>
</clipPath>
</defs>
</svg>
